<mxfile host="65bd71144e">
    <diagram id="x-1zOS60-aPn8_D1f6Lg" name="Page-1">
        <mxGraphModel dx="2289" dy="1560" grid="1" gridSize="10" guides="1" tooltips="1" connect="1" arrows="1" fold="1" page="1" pageScale="1" pageWidth="850" pageHeight="1100" background="#4D4D4D" math="0" shadow="0">
            <root>
                <mxCell id="0"/>
                <mxCell id="1" parent="0"/>
                <mxCell id="2" value="Models" style="shape=hexagon;perimeter=hexagonPerimeter2;whiteSpace=wrap;html=1;fixedSize=1;fillColor=#6d8764;fontColor=#ffffff;strokeColor=#3A5431;" parent="1" vertex="1">
                    <mxGeometry x="190" y="290" width="260" height="150" as="geometry"/>
                </mxCell>
                <mxCell id="6" style="edgeStyle=none;html=1;entryX=0.5;entryY=0;entryDx=0;entryDy=0;" parent="1" source="4" target="5" edge="1">
                    <mxGeometry relative="1" as="geometry"/>
                </mxCell>
                <mxCell id="4" value="&lt;font color=&quot;#ffffff&quot;&gt;REST API&lt;/font&gt;" style="rounded=1;whiteSpace=wrap;html=1;fillColor=#e3c800;fontColor=#000000;strokeColor=#B09500;" parent="1" vertex="1">
                    <mxGeometry x="260" y="80" width="120" height="60" as="geometry"/>
                </mxCell>
                <mxCell id="7" value="" style="edgeStyle=none;html=1;" parent="1" source="5" target="2" edge="1">
                    <mxGeometry relative="1" as="geometry"/>
                </mxCell>
                <mxCell id="5" value="&lt;font color=&quot;#ffffff&quot;&gt;Application Services&lt;/font&gt;" style="rounded=1;whiteSpace=wrap;html=1;fillColor=#fa6800;fontColor=#000000;strokeColor=#C73500;" parent="1" vertex="1">
                    <mxGeometry x="220" y="190" width="200" height="60" as="geometry"/>
                </mxCell>
                <mxCell id="8" value="Infrastructure" style="rounded=1;whiteSpace=wrap;html=1;fillColor=#76608a;fontColor=#ffffff;strokeColor=#432D57;" parent="1" vertex="1">
                    <mxGeometry x="10" y="540" width="620" height="190" as="geometry"/>
                </mxCell>
                <mxCell id="86" style="edgeStyle=none;html=1;fontSize=11;entryX=0.909;entryY=0.917;entryDx=0;entryDy=0;entryPerimeter=0;" parent="1" source="18" target="48" edge="1">
                    <mxGeometry relative="1" as="geometry">
                        <mxPoint x="570" y="500" as="targetPoint"/>
                    </mxGeometry>
                </mxCell>
                <mxCell id="89" style="edgeStyle=none;html=1;entryX=0.908;entryY=1.066;entryDx=0;entryDy=0;entryPerimeter=0;fontSize=11;" parent="1" source="18" target="59" edge="1">
                    <mxGeometry relative="1" as="geometry">
                        <Array as="points">
                            <mxPoint x="660" y="610"/>
                        </Array>
                    </mxGeometry>
                </mxCell>
                <mxCell id="90" value="&lt;span style=&quot;background-color: rgb(77, 77, 77);&quot;&gt;publish job status&lt;/span&gt;" style="edgeLabel;html=1;align=center;verticalAlign=middle;resizable=0;points=[];fontSize=11;" parent="89" vertex="1" connectable="0">
                    <mxGeometry x="0.1643" y="-2" relative="1" as="geometry">
                        <mxPoint x="-1" y="5" as="offset"/>
                    </mxGeometry>
                </mxCell>
                <mxCell id="18" value="MQTT" style="rounded=0;whiteSpace=wrap;html=1;" parent="1" vertex="1">
                    <mxGeometry x="530" y="590" width="80" height="40" as="geometry"/>
                </mxCell>
                <mxCell id="27" style="edgeStyle=none;html=1;entryX=0.5;entryY=1;entryDx=0;entryDy=0;" parent="1" source="19" target="26" edge="1">
                    <mxGeometry relative="1" as="geometry">
                        <Array as="points">
                            <mxPoint x="320" y="490"/>
                        </Array>
                    </mxGeometry>
                </mxCell>
                <mxCell id="19" value="Job queue" style="rounded=0;whiteSpace=wrap;html=1;" parent="1" vertex="1">
                    <mxGeometry x="247.5" y="555" width="145" height="50" as="geometry"/>
                </mxCell>
                <mxCell id="28" style="edgeStyle=none;html=1;exitX=1;exitY=0.5;exitDx=0;exitDy=0;entryX=0;entryY=0.5;entryDx=0;entryDy=0;" parent="1" source="22" target="19" edge="1">
                    <mxGeometry relative="1" as="geometry"/>
                </mxCell>
                <mxCell id="67" style="edgeStyle=none;html=1;entryX=1;entryY=0.5;entryDx=0;entryDy=0;entryPerimeter=0;fontSize=11;" parent="1" source="22" target="50" edge="1">
                    <mxGeometry relative="1" as="geometry"/>
                </mxCell>
                <mxCell id="68" style="edgeStyle=none;html=1;exitX=0.5;exitY=1;exitDx=0;exitDy=0;entryX=0.5;entryY=1;entryDx=0;entryDy=0;entryPerimeter=0;fontSize=11;" parent="1" source="22" target="48" edge="1">
                    <mxGeometry relative="1" as="geometry">
                        <Array as="points">
                            <mxPoint x="123" y="650"/>
                            <mxPoint x="523" y="650"/>
                        </Array>
                    </mxGeometry>
                </mxCell>
                <mxCell id="22" value="Real time synchronization server" style="rounded=0;whiteSpace=wrap;html=1;" parent="1" vertex="1">
                    <mxGeometry x="50" y="555" width="145" height="50" as="geometry"/>
                </mxCell>
                <mxCell id="26" value="Disk Controls" style="rounded=0;whiteSpace=wrap;html=1;" parent="1" vertex="1">
                    <mxGeometry x="275" y="400" width="90" height="32.5" as="geometry"/>
                </mxCell>
                <mxCell id="32" style="edgeStyle=none;html=1;entryX=1;entryY=0.5;entryDx=0;entryDy=0;" parent="1" source="29" target="59" edge="1">
                    <mxGeometry relative="1" as="geometry">
                        <mxPoint x="660" y="110" as="targetPoint"/>
                    </mxGeometry>
                </mxCell>
                <mxCell id="29" value="Client&lt;br&gt;(Mobile, desktop or browser)" style="ellipse;whiteSpace=wrap;html=1;" parent="1" vertex="1">
                    <mxGeometry x="750" y="70" width="120" height="80" as="geometry"/>
                </mxCell>
                <mxCell id="38" value="&lt;font style=&quot;&quot;&gt;&lt;b style=&quot;&quot;&gt;&lt;font style=&quot;font-size: 24px;&quot;&gt;sdisk architecture&lt;/font&gt;&lt;/b&gt;&lt;br&gt;&lt;i style=&quot;font-size: 16px;&quot;&gt;&lt;font style=&quot;font-size: 16px;&quot;&gt;in a nutshell&lt;/font&gt;&lt;/i&gt;&lt;br&gt;&lt;/font&gt;" style="text;html=1;strokeColor=none;fillColor=none;align=center;verticalAlign=middle;whiteSpace=wrap;rounded=0;" parent="1" vertex="1">
                    <mxGeometry x="175" y="-30" width="290" height="50" as="geometry"/>
                </mxCell>
                <mxCell id="41" value="Permissions" style="rounded=0;whiteSpace=wrap;html=1;" parent="1" vertex="1">
                    <mxGeometry x="200" y="349.38" width="80" height="30.62" as="geometry"/>
                </mxCell>
                <mxCell id="42" value="User" style="rounded=0;whiteSpace=wrap;html=1;" parent="1" vertex="1">
                    <mxGeometry x="280" y="300" width="80" height="31.25" as="geometry"/>
                </mxCell>
                <mxCell id="43" value="Disk" style="rounded=0;whiteSpace=wrap;html=1;" parent="1" vertex="1">
                    <mxGeometry x="365" y="349.37" width="80" height="31.25" as="geometry"/>
                </mxCell>
                <mxCell id="48" value="&lt;font style=&quot;font-size: 12px;&quot;&gt;Disk meta data&lt;/font&gt;" style="shape=cylinder3;whiteSpace=wrap;html=1;boundedLbl=1;backgroundOutline=1;size=15;fontSize=16;" parent="1" vertex="1">
                    <mxGeometry x="465" y="450" width="115" height="55" as="geometry"/>
                </mxCell>
                <mxCell id="50" value="&lt;span style=&quot;font-size: 12px;&quot;&gt;Server storage&lt;/span&gt;" style="shape=cylinder3;whiteSpace=wrap;html=1;boundedLbl=1;backgroundOutline=1;size=15;fontSize=16;" parent="1" vertex="1">
                    <mxGeometry x="-170" y="545" width="115" height="70" as="geometry"/>
                </mxCell>
                <mxCell id="79" style="edgeStyle=none;html=1;fontSize=11;entryX=0.292;entryY=-0.006;entryDx=0;entryDy=0;exitX=1;exitY=0.5;exitDx=0;exitDy=0;entryPerimeter=0;" parent="1" edge="1" target="19">
                    <mxGeometry relative="1" as="geometry">
                        <mxPoint x="274.7600000000002" y="555.0000000000001" as="targetPoint"/>
                        <mxPoint x="175" y="457.1" as="sourcePoint"/>
                        <Array as="points">
                            <mxPoint x="290" y="458"/>
                        </Array>
                    </mxGeometry>
                </mxCell>
                <mxCell id="81" value="&lt;span style=&quot;background-color: rgb(77, 77, 77);&quot;&gt;Synchronizes data&lt;/span&gt;" style="edgeLabel;html=1;align=center;verticalAlign=middle;resizable=0;points=[];fontSize=11;" parent="79" vertex="1" connectable="0">
                    <mxGeometry x="-0.1616" y="2" relative="1" as="geometry">
                        <mxPoint x="-28" y="2" as="offset"/>
                    </mxGeometry>
                </mxCell>
                <mxCell id="87" style="edgeStyle=none;html=1;exitX=1;exitY=0.5;exitDx=0;exitDy=0;fontSize=11;" parent="1" source="52" edge="1">
                    <mxGeometry relative="1" as="geometry">
                        <mxPoint x="175.33333333333348" y="457.8333333333335" as="targetPoint"/>
                    </mxGeometry>
                </mxCell>
                <mxCell id="52" value="sdisk-client" style="rounded=0;whiteSpace=wrap;html=1;fillColor=#d80073;fontColor=#ffffff;strokeColor=#A50040;" parent="1" vertex="1">
                    <mxGeometry x="30" y="432.5" width="145" height="50" as="geometry"/>
                </mxCell>
                <mxCell id="77" style="edgeStyle=none;html=1;fontSize=11;entryX=0;entryY=0.5;entryDx=0;entryDy=0;exitX=1;exitY=0.5;exitDx=0;exitDy=0;" parent="1" source="53" target="52" edge="1">
                    <mxGeometry relative="1" as="geometry">
                        <mxPoint x="-120.0035354769573" y="432.49848920543036" as="sourcePoint"/>
                        <mxPoint x="20" y="460" as="targetPoint"/>
                    </mxGeometry>
                </mxCell>
                <mxCell id="78" value="Background process" style="edgeLabel;html=1;align=center;verticalAlign=middle;resizable=0;points=[];fontSize=11;labelBackgroundColor=#4D4D4D;" parent="77" vertex="1" connectable="0">
                    <mxGeometry x="-0.315" relative="1" as="geometry">
                        <mxPoint x="15" as="offset"/>
                    </mxGeometry>
                </mxCell>
                <mxCell id="53" value="Client&lt;br&gt;(Desktop or mobile device)" style="ellipse;whiteSpace=wrap;html=1;" parent="1" vertex="1">
                    <mxGeometry x="-220" y="417.5" width="120" height="80" as="geometry"/>
                </mxCell>
                <mxCell id="60" value="" style="edgeStyle=none;html=1;entryX=1;entryY=0.5;entryDx=0;entryDy=0;fontSize=25;" parent="1" source="59" target="4" edge="1">
                    <mxGeometry x="-0.2" y="-10" relative="1" as="geometry">
                        <mxPoint as="offset"/>
                    </mxGeometry>
                </mxCell>
                <mxCell id="62" value="&lt;span style=&quot;background-color: rgb(77, 77, 77);&quot;&gt;Issues commands&lt;/span&gt;" style="edgeLabel;html=1;align=center;verticalAlign=middle;resizable=0;points=[];fontSize=11;" parent="60" vertex="1" connectable="0">
                    <mxGeometry x="-0.0643" y="1" relative="1" as="geometry">
                        <mxPoint y="-1" as="offset"/>
                    </mxGeometry>
                </mxCell>
                <mxCell id="59" value="sdisk-dashboard&lt;br&gt;(frontend)" style="rounded=1;whiteSpace=wrap;html=1;fillColor=#0050ef;strokeColor=#001DBC;fontColor=#ffffff;" parent="1" vertex="1">
                    <mxGeometry x="550" y="80" width="120" height="60" as="geometry"/>
                </mxCell>
            </root>
        </mxGraphModel>
    </diagram>
</mxfile>